%
M48
M72
T01C0.0236
T02C0.0394
T03C0.0400
T04C0.0512
T05C0.1654
%
T01
X1375Y5250
X1375Y7250
X1375Y9250
X1375Y11250
X4750Y8750
X4750Y7750
X4750Y5625
X6500Y4625
X9250Y5625
X9750Y4875
X10250Y5625
X11250Y6250
X12500Y6250
X10125Y9000
X10250Y9500
X10000Y10250
X8375Y9125
X7625Y10250
X8250Y13625
X10375Y15125
X10125Y15625
X10250Y16375
X9250Y16375
X10625Y14625
X10875Y14125
X11125Y13625
X11625Y13250
X12000Y13625
X12000Y14125
X12000Y14625
X12000Y15125
X12000Y15625
X13625Y14625
X13625Y14125
X15125Y13250
X15500Y13625
X16125Y14500
X17125Y14500
X18125Y14500
X19125Y14500
X20125Y14500
X20125Y18625
X20875Y18625
X19500Y26125
X17500Y26125
X15500Y26125
X13500Y26125
X11500Y26125
X7750Y22875
X7625Y21250
X8375Y20125
X10125Y20125
X10875Y20250
X11625Y20250
X4750Y19750
X4750Y18750
X1375Y18250
X1375Y16250
X1375Y20250
X1375Y22250
X12750Y10250
X12500Y9500
X14500Y9750
X15270Y7156
X16750Y6500
X18125Y5875
X16750Y4625
X17125Y3000
X16125Y3000
X18125Y3000
X19125Y3000
X20125Y3000
X20625Y8375
T02
X20125Y1750
X19125Y1750
X18125Y1750
X17125Y1750
X16125Y1750
X16125Y15750
X17125Y15750
X18125Y15750
X19125Y15750
X20125Y15750
T03
X6734Y13625
X4766Y13625
T04
X2000Y11250
X2000Y9250
X2000Y7250
X2000Y5250
X2000Y16250
X2000Y18250
X2000Y20250
X2000Y22250
X5750Y25500
X7750Y25500
X11500Y25500
X13500Y25500
X15500Y25500
X17500Y25500
X19500Y25500
T05
X1969Y1969
X23622Y1969
X23622Y25591
X1969Y25591
M30
